<svg width="173" height="132" viewBox="0 0 173 132" fill="none" xmlns="http://www.w3.org/2000/svg">
    <g filter="url(#filter0_d)">
        <path d="M103.55 35.4056C109.259 24.6227 119.188 16.6942 130.967 13.5138L162.5 5L153.93 29.5187C148.195 45.9272 133.338 57.4216 116.015 58.852L90 61L103.55 35.4056Z" fill="#05B116" fill-opacity="0.49"/>
        <path d="M148.95 91.4056C143.241 80.6227 133.312 72.6942 121.533 69.5138L90 61L98.5696 85.5187C104.305 101.927 119.162 113.422 136.485 114.852L162.5 117L148.95 91.4056Z" fill="#05B116" fill-opacity="0.49"/>
        <path d="M23.55 91.4056C29.2586 80.6227 39.1883 72.6942 50.9673 69.5138L82.5 61L73.9304 85.5187C68.1953 101.927 53.338 113.422 36.015 114.852L10 117L23.55 91.4056Z" fill="#05B116" fill-opacity="0.49"/>
        <path d="M68.95 35.4056C63.2414 24.6227 53.3117 16.6942 41.5327 13.5138L10 5L18.5696 29.5187C24.3047 45.9272 39.162 57.4216 56.485 58.852L82.5 61L68.95 35.4056Z" fill="#05B116" fill-opacity="0.49"/>
        <path d="M57.1965 62.328H58.9965C63.2925 62.328 65.4405 60.528 65.4405 56.928C65.4405 55.152 65.0205 53.868 64.1805 53.076C63.3405 52.26 61.9965 51.852 60.1485 51.852C59.4285 51.852 58.4445 51.9 57.1965 51.996V62.328ZM57.1245 50.88L61.2285 50.772C66.6765 50.772 69.4005 52.824 69.4005 56.928C69.4005 58.704 68.7885 60.168 67.5645 61.32C66.3645 62.448 64.8045 63.012 62.8845 63.012C62.7165 63.012 62.4165 62.988 61.9845 62.94V63.012C64.5525 63.372 66.3165 64.212 67.2765 65.532C68.2605 66.828 68.7525 68.82 68.7525 71.508C68.7525 73.188 69.0645 74.16 69.6885 74.424C69.9765 74.616 70.3725 74.712 70.8765 74.712C71.4045 74.712 72.0765 74.556 72.8925 74.244V75.144C71.6205 75.6 70.4565 75.828 69.4005 75.828C67.0485 75.828 65.5965 74.82 65.0445 72.804C64.9005 72.276 64.8165 71.532 64.7925 70.572C64.7925 69.612 64.7565 68.76 64.6845 68.016C64.6125 67.272 64.4445 66.528 64.1805 65.784C63.5805 64.176 61.9245 63.372 59.2125 63.372H57.1965V73.956L59.9685 74.208V75H50.7885V74.244L53.4885 73.956V52.068L50.3565 51.708V50.772C51.8925 50.844 53.5365 50.88 55.2885 50.88H57.1245ZM92.5199 50.952H99.7919V51.816L97.2719 52.644V75H95.2919L78.8039 55.236V73.236L81.7919 74.136V75H74.3759V74.136L77.2559 73.236V52.14L74.1239 51.78V50.952H80.0279L95.2919 69.42V52.644L92.5199 51.816V50.952ZM102.883 50.952H112.855V51.816L109.723 52.14V73.848L118.795 73.74L120.487 69.636H121.423L120.991 75H102.883V74.136L106.015 73.812V52.14L102.883 51.816V50.952Z" fill="#2D0101" fill-opacity="0.65"/>
    </g>
    <defs>
        <filter id="filter0_d" x="0" y="0" width="172.5" height="132" filterUnits="userSpaceOnUse" color-interpolation-filters="sRGB">
            <feFlood flood-opacity="0" result="BackgroundImageFix"/>
            <feColorMatrix in="SourceAlpha" type="matrix" values="0 0 0 0 0 0 0 0 0 0 0 0 0 0 0 0 0 0 127 0"/>
            <feOffset dy="5"/>
            <feGaussianBlur stdDeviation="5"/>
            <feColorMatrix type="matrix" values="0 0 0 0 0 0 0 0 0 0 0 0 0 0 0 0 0 0 0.1 0"/>
            <feBlend mode="normal" in2="BackgroundImageFix" result="effect1_dropShadow"/>
            <feBlend mode="normal" in="SourceGraphic" in2="effect1_dropShadow" result="shape"/>
        </filter>
    </defs>
</svg>
