<svg width="153" height="112" viewBox="0 0 153 112" fill="none" xmlns="http://www.w3.org/2000/svg">
    <path d="M93.55 30.4056C99.2586 19.6227 109.188 11.6942 120.967 8.51382L152.5 0L143.93 24.5187C138.195 40.9272 123.338 52.4216 106.015 53.852L80 56L93.55 30.4056Z" fill="#05B116" fill-opacity="0.49"/>
    <path d="M138.95 86.4056C133.241 75.6227 123.312 67.6942 111.533 64.5138L80 56L88.5696 80.5187C94.3047 96.9272 109.162 108.422 126.485 109.852L152.5 112L138.95 86.4056Z" fill="#05B116" fill-opacity="0.49"/>
    <path d="M13.55 86.4056C19.2586 75.6227 29.1883 67.6942 40.9673 64.5138L72.5 56L63.9304 80.5187C58.1953 96.9272 43.338 108.422 26.015 109.852L0 112L13.55 86.4056Z" fill="#05B116" fill-opacity="0.49"/>
    <path d="M58.95 30.4056C53.2414 19.6227 43.3117 11.6942 31.5327 8.51382L0 0L8.56963 24.5187C14.3047 40.9272 29.162 52.4216 46.485 53.852L72.5 56L58.95 30.4056Z" fill="#05B116" fill-opacity="0.49"/>
    <path d="M47.1965 57.328H48.9965C53.2925 57.328 55.4405 55.528 55.4405 51.928C55.4405 50.152 55.0205 48.868 54.1805 48.076C53.3405 47.26 51.9965 46.852 50.1485 46.852C49.4285 46.852 48.4445 46.9 47.1965 46.996V57.328ZM47.1245 45.88L51.2285 45.772C56.6765 45.772 59.4005 47.824 59.4005 51.928C59.4005 53.704 58.7885 55.168 57.5645 56.32C56.3645 57.448 54.8045 58.012 52.8845 58.012C52.7165 58.012 52.4165 57.988 51.9845 57.94V58.012C54.5525 58.372 56.3165 59.212 57.2765 60.532C58.2605 61.828 58.7525 63.82 58.7525 66.508C58.7525 68.188 59.0645 69.16 59.6885 69.424C59.9765 69.616 60.3725 69.712 60.8765 69.712C61.4045 69.712 62.0765 69.556 62.8925 69.244V70.144C61.6205 70.6 60.4565 70.828 59.4005 70.828C57.0485 70.828 55.5965 69.82 55.0445 67.804C54.9005 67.276 54.8165 66.532 54.7925 65.572C54.7925 64.612 54.7565 63.76 54.6845 63.016C54.6125 62.272 54.4445 61.528 54.1805 60.784C53.5805 59.176 51.9245 58.372 49.2125 58.372H47.1965V68.956L49.9685 69.208V70H40.7885V69.244L43.4885 68.956V47.068L40.3565 46.708V45.772C41.8925 45.844 43.5365 45.88 45.2885 45.88H47.1245ZM82.5199 45.952H89.7919V46.816L87.2719 47.644V70H85.2919L68.8039 50.236V68.236L71.7919 69.136V70H64.3759V69.136L67.2559 68.236V47.14L64.1239 46.78V45.952H70.0279L85.2919 64.42V47.644L82.5199 46.816V45.952ZM92.8825 45.952H102.855V46.816L99.7225 47.14V68.848L108.795 68.74L110.487 64.636H111.423L110.991 70H92.8825V69.136L96.0145 68.812V47.14L92.8825 46.816V45.952Z" fill="#2D0101" fill-opacity="0.65"/>
</svg>
